<svg width="1130" height="1130" viewBox="0 0 1130 1130" fill="none" xmlns="http://www.w3.org/2000/svg">
<g filter="url(#filter0_d_210_1628)">
<circle cx="563.894" cy="564.967" r="320.331" transform="rotate(45 563.894 564.967)" fill="#242325"/>
</g>
<g filter="url(#filter1_d_210_1628)">
<circle cx="563.927" cy="565" r="303.785" transform="rotate(45 563.927 565)" fill="url(#paint0_linear_210_1628)"/>
</g>
<path d="M282.5 468.195C294.701 432.59 313.523 399.612 337.974 370.998L555.919 557.24C554.941 558.384 554.188 559.704 553.7 561.128L282.5 468.195Z" fill="url(#paint1_linear_210_1628)"/>
<path d="M282.5 468.195C295.11 431.396 314.789 397.414 340.43 368.161L556.017 557.126C554.991 558.296 554.204 559.656 553.7 561.128L282.5 468.195Z" fill="url(#paint2_linear_210_1628)"/>
<path d="M282.5 468.195C294.906 431.993 314.154 398.512 339.198 369.575L555.968 557.183C554.966 558.34 554.196 559.68 553.7 561.128L282.5 468.195Z" fill="url(#paint3_linear_210_1628)"/>
<path d="M341.285 367.188C366.635 338.519 397.259 314.99 431.49 297.88L559.659 554.315C558.29 554.999 557.065 555.94 556.051 557.087L341.285 367.188Z" fill="url(#paint4_linear_210_1628)"/>
<path d="M342.821 365.467C368.391 336.994 399.196 313.702 433.558 296.858L559.743 554.274C558.369 554.947 557.137 555.879 556.114 557.018L342.821 365.467Z" fill="url(#paint5_linear_210_1628)"/>
<path d="M435.573 295.879C470.061 279.293 507.416 269.49 545.604 267.005L564.224 553.08C562.696 553.179 561.202 553.571 559.823 554.235L435.573 295.879Z" fill="url(#paint6_linear_210_1628)"/>
<path d="M547.842 266.868C586.048 264.669 624.32 269.834 660.576 282.082L568.824 553.683C567.373 553.193 565.842 552.987 564.314 553.075L547.842 266.868Z" fill="url(#paint7_linear_210_1628)"/>
<path d="M662.696 282.807C698.859 295.327 732.279 314.681 761.136 339.816L572.845 555.992C571.691 554.987 570.354 554.213 568.907 553.712L662.696 282.807Z" fill="url(#paint8_linear_210_1628)"/>
<path d="M762.821 341.294C791.489 366.645 815.017 397.27 832.125 431.502L575.685 559.659C575 558.29 574.059 557.065 572.912 556.051L762.821 341.294Z" fill="url(#paint9_linear_210_1628)"/>
<path d="M833.118 433.51C849.969 467.87 860.058 505.148 862.836 543.316L576.912 564.132C576.801 562.605 576.398 561.114 575.724 559.739L833.118 433.51Z" fill="url(#paint10_linear_210_1628)"/>
<path d="M862.99 545.552C865.482 583.74 860.611 622.051 848.642 658.4L576.344 568.735C576.823 567.281 577.018 565.748 576.918 564.221L862.99 545.552Z" fill="url(#paint11_linear_210_1628)"/>
<path d="M847.5 661.804C835.094 698.007 815.846 731.487 790.802 760.424L574.032 572.816C575.034 571.659 575.804 570.32 576.3 568.872L847.5 661.804Z" fill="url(#paint12_linear_210_1628)"/>
<path d="M788.714 762.811C763.365 791.48 732.741 815.009 698.51 832.119L570.341 575.684C571.71 575 572.935 574.059 573.949 572.912L788.714 762.811Z" fill="url(#paint13_linear_210_1628)"/>
<path d="M787.18 764.533C761.61 793.005 730.805 816.297 696.443 833.142L570.257 575.726C571.632 575.052 572.864 574.12 573.887 572.981L787.18 764.533Z" fill="url(#paint14_linear_210_1628)"/>
<path d="M694.426 834.12C659.938 850.707 622.583 860.509 584.395 862.995L565.775 576.919C567.302 576.82 568.797 576.428 570.176 575.764L694.426 834.12Z" fill="url(#paint15_linear_210_1628)"/>
<path d="M582.159 863.132C543.953 865.331 505.681 860.166 469.425 847.918L561.177 576.317C562.628 576.806 564.159 577.013 565.687 576.925L582.159 863.132Z" fill="url(#paint16_linear_210_1628)"/>
<path d="M467.304 847.192C431.14 834.672 397.721 815.318 368.863 790.183L557.155 574.007C558.309 575.012 559.646 575.787 561.092 576.287L467.304 847.192Z" fill="url(#paint17_linear_210_1628)"/>
<path d="M367.177 788.705C338.509 763.354 314.981 732.729 297.873 698.497L554.313 570.34C554.998 571.709 555.939 572.934 557.086 573.948L367.177 788.705Z" fill="url(#paint18_linear_210_1628)"/>
<path d="M296.88 696.488C280.03 662.128 269.941 624.85 267.162 586.682L553.086 565.867C553.197 567.393 553.601 568.884 554.275 570.259L296.88 696.488Z" fill="url(#paint19_linear_210_1628)"/>
<path d="M267.007 584.445C264.515 546.258 269.387 507.947 281.356 471.598L553.654 561.263C553.175 562.717 552.98 564.249 553.08 565.777L267.007 584.445Z" fill="url(#paint20_linear_210_1628)"/>
<g filter="url(#filter2_i_210_1628)">
<path d="M611 565C611 590.957 589.957 612 564 612C538.043 612 517 590.957 517 565C517 539.043 538.043 518 564 518C589.957 518 611 539.043 611 565Z" fill="url(#paint21_linear_210_1628)"/>
</g>
<path d="M564 518.5C589.681 518.5 610.5 539.319 610.5 565C610.5 590.681 589.681 611.5 564 611.5C538.319 611.5 517.5 590.681 517.5 565C517.5 539.319 538.319 518.5 564 518.5Z" stroke="url(#paint22_linear_210_1628)"/>
<defs>
<filter id="filter0_d_210_1628" x="228.563" y="233.636" width="670.662" height="670.662" filterUnits="userSpaceOnUse" color-interpolation-filters="sRGB">
<feFlood flood-opacity="0" result="BackgroundImageFix"/>
<feColorMatrix in="SourceAlpha" type="matrix" values="0 0 0 0 0 0 0 0 0 0 0 0 0 0 0 0 0 0 127 0" result="hardAlpha"/>
<feOffset dy="4"/>
<feGaussianBlur stdDeviation="7.5"/>
<feComposite in2="hardAlpha" operator="out"/>
<feColorMatrix type="matrix" values="0 0 0 0 0.984314 0 0 0 0 0.686275 0 0 0 0 0.690196 0 0 0 0.25 0"/>
<feBlend mode="normal" in2="BackgroundImageFix" result="effect1_dropShadow_210_1628"/>
<feBlend mode="normal" in="SourceGraphic" in2="effect1_dropShadow_210_1628" result="shape"/>
</filter>
<filter id="filter1_d_210_1628" x="250.142" y="247.215" width="627.57" height="627.57" filterUnits="userSpaceOnUse" color-interpolation-filters="sRGB">
<feFlood flood-opacity="0" result="BackgroundImageFix"/>
<feColorMatrix in="SourceAlpha" type="matrix" values="0 0 0 0 0 0 0 0 0 0 0 0 0 0 0 0 0 0 127 0" result="hardAlpha"/>
<feOffset dy="-4"/>
<feGaussianBlur stdDeviation="5"/>
<feComposite in2="hardAlpha" operator="out"/>
<feColorMatrix type="matrix" values="0 0 0 0 0.984314 0 0 0 0 0.690196 0 0 0 0 0.694118 0 0 0 0.25 0"/>
<feBlend mode="normal" in2="BackgroundImageFix" result="effect1_dropShadow_210_1628"/>
<feBlend mode="normal" in="SourceGraphic" in2="effect1_dropShadow_210_1628" result="shape"/>
</filter>
<filter id="filter2_i_210_1628" x="517" y="518" width="94" height="98" filterUnits="userSpaceOnUse" color-interpolation-filters="sRGB">
<feFlood flood-opacity="0" result="BackgroundImageFix"/>
<feBlend mode="normal" in="SourceGraphic" in2="BackgroundImageFix" result="shape"/>
<feColorMatrix in="SourceAlpha" type="matrix" values="0 0 0 0 0 0 0 0 0 0 0 0 0 0 0 0 0 0 127 0" result="hardAlpha"/>
<feOffset dy="4"/>
<feGaussianBlur stdDeviation="5"/>
<feComposite in2="hardAlpha" operator="arithmetic" k2="-1" k3="1"/>
<feColorMatrix type="matrix" values="0 0 0 0 0 0 0 0 0 0 0 0 0 0 0 0 0 0 0.25 0"/>
<feBlend mode="normal" in2="shape" result="effect1_innerShadow_210_1628"/>
</filter>
<linearGradient id="paint0_linear_210_1628" x1="824.301" y1="760.28" x2="244.241" y2="516.461" gradientUnits="userSpaceOnUse">
<stop stop-color="#242325"/>
<stop offset="1" stop-color="#F00D2A"/>
</linearGradient>
<linearGradient id="paint1_linear_210_1628" x1="385.098" y1="300.431" x2="846.819" y2="712.009" gradientUnits="userSpaceOnUse">
<stop stop-color="#242325"/>
<stop offset="1" stop-color="#F4465C"/>
</linearGradient>
<linearGradient id="paint2_linear_210_1628" x1="385.098" y1="300.431" x2="846.819" y2="712.009" gradientUnits="userSpaceOnUse">
<stop stop-color="#242325"/>
<stop offset="1" stop-color="#F4465C"/>
</linearGradient>
<linearGradient id="paint3_linear_210_1628" x1="385.098" y1="300.431" x2="846.819" y2="712.009" gradientUnits="userSpaceOnUse">
<stop stop-color="#242325"/>
<stop offset="1" stop-color="#F4465C"/>
</linearGradient>
<linearGradient id="paint4_linear_210_1628" x1="500.412" y1="251.647" x2="768.817" y2="808.909" gradientUnits="userSpaceOnUse">
<stop stop-color="#242325"/>
<stop offset="1" stop-color="#F4465C"/>
</linearGradient>
<linearGradient id="paint5_linear_210_1628" x1="502.835" y1="251.157" x2="766.93" y2="810.476" gradientUnits="userSpaceOnUse">
<stop stop-color="#242325"/>
<stop offset="1" stop-color="#F4465C"/>
</linearGradient>
<linearGradient id="paint6_linear_210_1628" x1="627.066" y1="251.138" x2="658.201" y2="868.886" gradientUnits="userSpaceOnUse">
<stop stop-color="#242325"/>
<stop offset="1" stop-color="#F4465C"/>
</linearGradient>
<linearGradient id="paint7_linear_210_1628" x1="741.941" y1="298.441" x2="535.422" y2="881.479" gradientUnits="userSpaceOnUse">
<stop stop-color="#242325"/>
<stop offset="1" stop-color="#F4465C"/>
</linearGradient>
<linearGradient id="paint8_linear_210_1628" x1="830.135" y1="385.934" x2="417.101" y2="846.353" gradientUnits="userSpaceOnUse">
<stop stop-color="#242325"/>
<stop offset="1" stop-color="#F4465C"/>
</linearGradient>
<linearGradient id="paint9_linear_210_1628" x1="878.355" y1="500.426" x2="321.08" y2="768.806" gradientUnits="userSpaceOnUse">
<stop stop-color="#242325"/>
<stop offset="1" stop-color="#F4465C"/>
</linearGradient>
<linearGradient id="paint10_linear_210_1628" x1="879.328" y1="624.654" x2="261.836" y2="660.53" gradientUnits="userSpaceOnUse">
<stop stop-color="#242325"/>
<stop offset="1" stop-color="#F4465C"/>
</linearGradient>
<linearGradient id="paint11_linear_210_1628" x1="832.907" y1="739.887" x2="248.302" y2="537.85" gradientUnits="userSpaceOnUse">
<stop stop-color="#242325"/>
<stop offset="1" stop-color="#F4465C"/>
</linearGradient>
<linearGradient id="paint12_linear_210_1628" x1="744.902" y1="829.568" x2="283.181" y2="417.99" gradientUnits="userSpaceOnUse">
<stop stop-color="#242325"/>
<stop offset="1" stop-color="#F4465C"/>
</linearGradient>
<linearGradient id="paint13_linear_210_1628" x1="629.588" y1="878.352" x2="361.183" y2="321.09" gradientUnits="userSpaceOnUse">
<stop stop-color="#242325"/>
<stop offset="1" stop-color="#F4465C"/>
</linearGradient>
<linearGradient id="paint14_linear_210_1628" x1="627.166" y1="878.842" x2="363.071" y2="319.524" gradientUnits="userSpaceOnUse">
<stop stop-color="#242325"/>
<stop offset="1" stop-color="#F4465C"/>
</linearGradient>
<linearGradient id="paint15_linear_210_1628" x1="502.933" y1="878.861" x2="471.798" y2="261.113" gradientUnits="userSpaceOnUse">
<stop stop-color="#242325"/>
<stop offset="1" stop-color="#F4465C"/>
</linearGradient>
<linearGradient id="paint16_linear_210_1628" x1="388.06" y1="831.559" x2="594.579" y2="248.521" gradientUnits="userSpaceOnUse">
<stop stop-color="#242325"/>
<stop offset="1" stop-color="#F4465C"/>
</linearGradient>
<linearGradient id="paint17_linear_210_1628" x1="299.864" y1="744.065" x2="712.899" y2="283.646" gradientUnits="userSpaceOnUse">
<stop stop-color="#242325"/>
<stop offset="1" stop-color="#F4465C"/>
</linearGradient>
<linearGradient id="paint18_linear_210_1628" x1="251.643" y1="629.573" x2="808.918" y2="361.193" gradientUnits="userSpaceOnUse">
<stop stop-color="#242325"/>
<stop offset="1" stop-color="#F4465C"/>
</linearGradient>
<linearGradient id="paint19_linear_210_1628" x1="250.67" y1="505.344" x2="868.162" y2="469.469" gradientUnits="userSpaceOnUse">
<stop stop-color="#242325"/>
<stop offset="1" stop-color="#F4465C"/>
</linearGradient>
<linearGradient id="paint20_linear_210_1628" x1="297.09" y1="390.11" x2="881.696" y2="592.148" gradientUnits="userSpaceOnUse">
<stop stop-color="#242325"/>
<stop offset="1" stop-color="#F4465C"/>
</linearGradient>
<linearGradient id="paint21_linear_210_1628" x1="509" y1="493" x2="601" y2="616.5" gradientUnits="userSpaceOnUse">
<stop stop-color="#ED0E2A"/>
<stop offset="1" stop-color="#2B2427"/>
</linearGradient>
<linearGradient id="paint22_linear_210_1628" x1="543.5" y1="521.5" x2="584.5" y2="607" gradientUnits="userSpaceOnUse">
<stop stop-color="#AA1428"/>
<stop offset="1" stop-color="#6F3038"/>
</linearGradient>
</defs>
</svg>
