<svg width="32" height="32" viewBox="0 0 32 32" fill="none" xmlns="http://www.w3.org/2000/svg">
<path fill-rule="evenodd" clip-rule="evenodd" d="M15.36 32C8.11924 32 4.49884 32 2.24942 29.7506C5.20186e-07 27.5012 3.75905e-07 23.8807 5.66732e-08 16.6399L2.40455e-10 15.3599C-3.18992e-07 8.11912 -5.20186e-07 4.49873 2.24942 2.24929C4.49884 5.20186e-07 8.11924 3.69507e-07 15.36 5.57071e-08L16.64 2.34357e-10C23.8808 -3.13569e-07 27.5012 -5.20186e-07 29.7506 2.24929C32 4.49869 32 8.11912 32 15.3599V16.6399C32 23.8807 32 27.5012 29.7506 29.7506C27.5012 32 23.8808 32 16.64 32H15.36Z" fill="#0077FF"/>
<path d="M18.5038 19.7206C17.6417 19.5052 17.0371 18.734 17.0371 17.8495V7.4284C17.0371 6.42371 17.9865 5.68687 18.9658 5.93149L25.1672 7.48065C26.0294 7.696 26.6339 8.46723 26.6339 9.35178V19.7728C26.6339 20.7775 25.6846 21.5144 24.7053 21.2698L18.5038 19.7206Z" fill="white"/>
<path d="M6.83193 24.5186C5.96974 24.3032 5.36523 23.532 5.36523 22.6474V12.2264C5.36523 11.2217 6.31458 10.4848 7.29385 10.7295L13.4953 12.2786C14.3575 12.494 14.962 13.2652 14.962 14.1498V24.5708C14.962 25.5755 14.0127 26.3124 13.0334 26.0677L6.83193 24.5186Z" fill="white"/>
<path d="M12.6679 22.1199C11.8057 21.9045 11.2012 21.1333 11.2012 20.2487V9.82772C11.2012 8.82303 12.1506 8.08616 13.1298 8.33078L19.3313 9.87994C20.1935 10.0953 20.798 10.8666 20.798 11.7511V22.1721C20.798 23.1769 19.8486 23.9137 18.8693 23.6691L12.6679 22.1199Z" fill="white"/>
<path d="M16.7266 23.1363C16.455 23.0672 16.2617 22.827 16.2522 22.5469L15.9824 14.5884C15.9044 13.5351 15.1225 12.6974 14.3055 12.4507C14.2596 12.4369 14.2106 12.4555 14.1834 12.495C14.1558 12.5351 14.1665 12.5906 14.205 12.6204C14.4068 12.7766 14.9621 13.2863 14.9621 14.1654L14.9604 22.6888L16.7266 23.1363Z" fill="#0077FF"/>
<path d="M22.5645 20.735C22.2932 20.6671 22.0996 20.4277 22.0902 20.1482L21.8203 12.1902C21.7423 11.1369 20.9604 10.2992 20.1433 10.0525C20.0975 10.0387 20.0485 10.0573 20.0213 10.0968C19.9937 10.1369 20.0044 10.1924 20.0429 10.2222C20.2446 10.3784 20.8 10.8881 20.8 11.7673L20.7984 20.2935L22.5645 20.735Z" fill="#0077FF"/>
</svg>
